{"title":"Ali.Fear.Eats.the.Soul.1974.720p.Criterion.Bluray.DTS.x264-GCJM","uid":11185338,"size":3758909996,"categoryP":"video","categoryS":"hd___movies","magnet":"?xt=urn:btih:1c43f4cabbf788540aa58ec9db8ba14c29daa6a3&amp;dn=Ali.Fear.Eats.the.Soul.1974.720p.Criterion.Bluray.DTS.x264-GCJM&amp;tr=udp%3A%2F%2Ftracker.openbittorrent.com%3A80&amp;tr=udp%3A%2F%2Fopen.demonii.com%3A1337&amp;tr=udp%3A%2F%2Ftracker.coppersurfer.tk%3A6969&amp;tr=udp%3A%2F%2Fexodus.desync.com%3A6969","seeders":8,"leechers":3,"uploader":null,"files":1,"time":1412907570,"description":"An almost accidental romance is kindled between a German woman in her mid-sixties and a Moroccan migrant worker around twenty-five years younger. They abruptly decide to marry, appalling everyone around them. \n\nGeneral\nUnique ID : 231416818246974056967437398886695077830 (0xAE19420B9C5CAC29BA3DB0B04E5887C6)\nComplete name : Ali.Fear.Eats.the.Soul.1974.720p.Criterion.Bluray.DTS.x264-GCJM.mkv\nFormat : Matroska\nFormat version : Version 2\nFile size : 3.50 GiB\nDuration : 1h 33mn\nOverall bit rate : 5 368 Kbps\nMovie name : Angst essen Seele auf 1974 - Criterion Blu-ray\nEncoded date : UTC 2014-10-08 17:51:04\nWriting application : mkvmerge v5.4.0 ('Piper') built on Mar 10 2012 13:34:39\nWriting library : libebml v1.2.3 + libmatroska v1.3.0\n\nVideo\nID : 1\nFormat : AVC\nFormat/Info : Advanced Video Codec\nFormat profile : &lt;a class=&quot;__cf_email__&quot; href=&quot;/cdn-cgi/l/email-protection&quot; data-cfemail=&quot;4b03222c230b077f657a&quot;&gt;[email&amp;#160;protected]&lt;/a&gt;&lt;script cf-hash='f9e31' type=&quot;text/javascript&quot;&gt;\n/* &lt;![CDATA[ */!function(){try{var t=&quot;currentScript&quot;in document?document.currentScript:function(){for(var t=document.getElementsByTagName(&quot;script&quot;),e=t.length;e--;)if(t[e].getAttribute(&quot;cf-hash&quot;))return t[e]}();if(t&amp;&amp;t.previousSibling){var e,r,n,i,c=t.previousSibling,a=c.getAttribute(&quot;data-cfemail&quot;);if(a){for(e=&quot;&quot;,r=parseInt(a.substr(0,2),16),n=2;a.length-n;n+=2)i=parseInt(a.substr(n,2),16)^r,e+=String.fromCharCode(i);e=document.createTextNode(e),c.parentNode.replaceChild(e,c)}}}catch(u){}}();/* ]]&gt; */&lt;/script&gt;\nFormat settings, CABAC : Yes\nFormat settings, ReFrames : 6 frames\nMuxing mode : Header stripping\nCodec ID : V_MPEG4/ISO/AVC\nDuration : 1h 33mn\nBit rate : 4 596 Kbps\nWidth : 986 pixels\nHeight : 720 pixels\nDisplay aspect ratio : 4:3\nFrame rate mode : Constant\nFrame rate : 23.976 fps\nColor space : YUV\nChroma subsampling : 4:2:0\nBit depth : 8 bits\nScan type : Progressive\nBits/(Pixel*Frame) : 0.270\nStream size : 2.93 GiB (84%)\nTitle : x264 | 4596 kbps | 23.976 fps | 1.37:1\nWriting library : x264 core 142 r2431 ac76440\nEncoding settings : cabac=1 / ref=6 / deblock=1:-3:-3 / analyse=0x3:0x133 / me=umh / subme=9 / psy=1 / psy_rd=1.00:0.00 / mixed_ref=1 / me_range=24 / chroma_me=1 / trellis=1 / 8x8dct=1 / cqm=0 / deadzone=21,11 / fast_pskip=0 / chroma_qp_offset=-2 / threads=4 / lookahead_threads=1 / sliced_threads=0 / nr=0 / decimate=0 / interlaced=0 / bluray_compat=0 / constrained_intra=0 / bframes=4 / b_pyramid=2 / b_adapt=2 / b_bias=0 / direct=1 / weightb=1 / open_gop=0 / weightp=2 / keyint=230 / keyint_min=23 / scenecut=40 / intra_refresh=0 / rc_lookahead=60 / rc=2pass / mbtree=1 / bitrate=4596 / ratetol=1.0 / qcomp=0.60 / qpmin=0 / qpmax=69 / qpstep=4 / cplxblur=20.0 / qblur=0.5 / vbv_maxrate=40000 / vbv_bufsize=30000 / nal_hrd=none / filler=0 / ip_ratio=1.40 / aq=1:1.00\nLanguage : German\nDefault : Yes\nForced : No\n\nAudio\nID : 2\nFormat : DTS\nFormat/Info : Digital Theater Systems\nMode : 16\nFormat settings, Endianness : Big\nMuxing mode : Header stripping\nCodec ID : A_DTS\nDuration : 1h 33mn\nBit rate mode : Constant\nBit rate : 768 Kbps\nChannel(s) : 1 channel\nChannel positions : Front: C\nSampling rate : 48.0 KHz\nBit depth : 24 bits\nCompression mode : Lossy\nStream size : 513 MiB (14%)\nTitle : DTS | 768 Kbps | 24 bits | 48 KHz | mono\nLanguage : German\nDefault : Yes\nForced : No\n\nText\nID : 3\nFormat : VobSub\nMuxing mode : zlib\nCodec ID : S_VOBSUB\nCodec ID/Info : The same subtitle format used on DVDs\nLanguage : English\nDefault : No\nForced : No","torrent":{"xt":"urn:btih:1c43f4cabbf788540aa58ec9db8ba14c29daa6a3","amp;dn":"Ali.Fear.Eats.the.Soul.1974.720p.Criterion.Bluray.DTS.x264-GCJM","amp;tr":["udp%3A%2F%2Ftracker.openbittorrent.com%3A80","udp%3A%2F%2Fopen.demonii.com%3A1337","udp%3A%2F%2Ftracker.coppersurfer.tk%3A6969","udp%3A%2F%2Fexodus.desync.com%3A6969"],"infoHash":"1c43f4cabbf788540aa58ec9db8ba14c29daa6a3","infoHashBuffer":{"type":"Buffer","data":[28,67,244,202,187,247,136,84,10,165,142,201,219,139,161,76,41,218,166,163]},"announce":[],"urlList":[]}}